Coordinates
version=1
nRows=12
nColumns=24
inDegrees=yes

Units are S.I. units (second, meters, Newtons, ...)
Angles are in degrees.

endheader
time	pelvis_tilt	pelvis_list	pelvis_rotation	pelvis_tx	pelvis_ty	pelvis_tz	hip_flexion_r	hip_adduction_r	hip_rotation_r	knee_angle_r	ankle_angle_r	subtalar_angle_r	mtp_angle_r	hip_flexion_l	hip_adduction_l	hip_rotation_l	knee_angle_l	ankle_angle_l	subtalar_angle_l	mtp_angle_l	lumbar_extension	lumbar_bending	lumbar_rotation
      0.94666667	      4.77776772	     -5.10975104	      1.20837711	     -0.38509046	      1.01059158	      0.34579025	      2.50845814	     11.22626682	      0.93668530	    -13.76858150	      3.11639211	    -14.21129627	     -3.35170020	      8.73151673	     -5.19866380	      1.59061307	    -69.97741584	     -9.87915139	    -10.95822886	      2.83592543	     -4.40000667	      9.54477138	      2.87477333
      0.95083333	      4.78114633	     -5.00074754	      1.01824324	     -0.38037047	      1.01112812	      0.34614838	      2.03357412	     11.12198578	      1.11145209	    -13.47485715	      3.12427833	    -14.14320363	     -3.36490163	      9.34462694	     -5.06100778	      1.51693077	    -70.04598745	     -9.22860752	    -11.36333858	      2.74364167	     -4.46178370	      9.38585901	      2.98803697
      0.95500000	      4.81434024	     -4.88879619	      0.82730338	     -0.37566921	      1.01169115	      0.34648752	      1.51681708	     11.01307103	      1.31756507	    -13.15625717	      3.10903598	    -14.06459474	     -3.38489472	      9.91356368	     -4.91551669	      1.45019793	    -70.06197078	     -8.61142271	    -11.75491694	      2.61591970	     -4.57591170	      9.24200808	      3.15723983
      0.95916667	      4.85852745	     -4.78078053	      0.64779824	     -0.37095052	      1.01223996	      0.34681048	      0.97085215	     10.90755397	      1.54497850	    -12.80139252	      3.10830349	    -14.02611746	     -3.44340441	     10.46203787	     -4.77684878	      1.39486240	    -70.03276149	     -8.01431671	    -12.07574166	      2.27951382	     -4.68853289	      9.09787379	      3.45924594
      0.96333333	      4.85498684	     -4.66758648	      0.47495416	     -0.36628104	      1.01269075	      0.34708275	      0.51755507	     10.78550976	      1.70361572	    -12.52346240	      3.15868717	    -13.94241996	     -3.45158376	     11.06413963	     -4.61948295	      1.36257013	    -69.97447611	     -7.38706073	    -12.38514974	      2.23032042	     -4.74437213	      8.96792204	      3.48029466
      0.96750000	      4.88680095	     -4.60012327	      0.28123963	     -0.36161773	      1.01315582	      0.34744110	     -0.01808183	     10.72974842	      2.02110222	    -12.15462136	      3.10140249	    -14.07446048	     -4.07839645	     11.62138959	     -4.54252674	      1.29009568	    -69.89569886	     -6.69134731	    -12.57596855	     -0.68587368	     -4.86411524	      8.87180006	      3.70245339
      0.97166667	      4.88260661	     -4.46212539	      0.09597870	     -0.35695208	      1.01356127	      0.34770822	     -0.45949979	     10.57153169	      2.16889778	    -11.89983219	      3.18308446	    -13.94721664	     -4.08115931	     12.19566847	     -4.35991959	      1.24754732	    -69.73422809	     -6.09750755	    -12.80916732	     -0.68919890	     -4.91776012	      8.69609267	      3.74544857
      0.97583333	      4.92652262	     -4.35333240	     -0.11463157	     -0.35232073	      1.01398945	      0.34803050	     -0.95564017	     10.44439681	      2.35893155	    -11.63400534	      3.21724976	    -13.78872444	     -4.09287014	     12.70981753	     -4.23810314	      1.15611364	    -69.54550759	     -5.46827392	    -12.96334056	     -0.70758662	     -5.04978699	      8.54265458	      3.89094300
      0.98000000	      4.94787451	     -4.25149212	     -0.29480275	     -0.34768385	      1.01435199	      0.34829881	     -1.43429412	     10.32390796	      2.54829520	    -11.35007810	      3.26741627	    -13.67556938	     -4.11108308	     13.24739652	     -4.11263690	      1.10951228	    -69.32360052	     -4.84780392	    -13.06517673	     -0.73506245	     -5.14952951	      8.40968618	      4.05989623
      0.98416667	      4.97284592	     -4.15477993	     -0.47719795	     -0.34304585	      1.01470403	      0.34855832	     -1.92317456	     10.20555401	      2.74329814	    -11.05121111	      3.32309515	    -13.59391991	     -4.14186367	     13.76821523	     -3.99265696	      1.06882158	    -69.05658784	     -4.23961221	    -13.10128340	     -0.77860984	     -5.24580663	      8.28907216	      4.24363038
      0.98833333	      4.98390826	     -4.05454215	     -0.67114994	     -0.33843070	      1.01500934	      0.34882693	     -2.37640591	     10.07891420	      2.92094120	    -10.79232630	      3.37810913	    -13.51407694	     -4.16071136	     14.29393525	     -3.87651988	      1.00745093	    -68.74921555	     -3.64216644	    -13.16700847	     -0.80035295	     -5.32655699	      8.14883972	      4.33518389
      0.99250000	      5.03195926	     -3.96343492	     -0.84525890	     -0.33380080	      1.01534681	      0.34907361	     -2.89439379	      9.96092594	      3.12240312	    -10.48176303	      3.43766156	    -13.44464544	     -4.19944681	     14.76744385	     -3.76881354	      0.97204833	    -68.39782474	     -3.03614203	    -13.09625629	     -0.84327166	     -5.45013413	      8.03553050	      4.51655148
